<svg version="1.1" xmlns="http://www.w3.org/2000/svg" viewBox="0 0 995 160">
  <!-- svg-source:excalidraw -->
  <defs>
    <style>
      @font-face {
        font-family: "Virgil";
        src: url("https://excalidraw.com/FG_Virgil.woff2");
      }
      @font-face {
        font-family: "Cascadia";
        src: url("https://excalidraw.com/Cascadia.woff2");
      }
    </style>
  </defs>
  <rect x="0" y="0" width="995" height="160" fill="#ffffff"></rect><g transform="translate(10 16) rotate(0 85 67)"><path d="M0.9582944605499506 1.8319052066653967 C39.3989615784958 -2.6288853614591066, 80.49472856521606 -1.1710613100789489, 170.114051470533 1.378534099087119 M0.23192138504236937 -0.9228226197883487 C44.795044988393784 -1.1469296130351723, 89.68636511731893 -0.13440992562100296, 170.29274670314044 -0.8238927079364657 M170.92565644718707 -1.6376378331333399 C172.54941815560684 39.36016046088189, 171.418255214151 75.52008911073209, 168.5162374470383 135.29780598543584 M170.42802468966693 -0.8202050877735019 C169.29774937881157 28.955729009211066, 169.83713198555634 58.924783108942215, 169.05462587904185 133.8458072291687 M169.20685548521578 132.12112685106695 C103.58132140245289 132.92502604341135, 33.3405014462769 133.0321764192544, -1.737893333658576 132.15089096687734 M170.88772643636912 133.4428099738434 C104.78841923736036 131.76839568084105, 40.335118622519076 132.13139258688315, 0.7424264950677752 133.66934341657907 M0.4035151097923517 132.07786478661 C0.11028944382444017 81.16646954063326, -1.4413790213130415 28.63876226767897, 0.5099232885986567 -1.4929360542446375 M0.772617201320827 133.00492495764047 C0.7886644030548633 104.75446803160011, 0.22204610953107484 73.48186011221259, -0.6512061851099133 -0.3737614406272769" stroke="#000000" stroke-width="1" fill="none"></path></g><g transform="translate(287 11) rotate(0 85 67)"><path d="M-0.8943038377910852 -0.9405540134757757 C52.94709394406528 -0.009523995313793554, 107.36682081222536 -2.0357217268086973, 169.9163669552654 -1.0507023837417364 M0.7954292641952634 0.16601196955889463 C63.69827499985695 -1.8966776323504744, 127.89522340428084 -1.0839719665236769, 169.74143368471414 0.7453948361799121 M170.06605806015432 0.6886217091232538 C169.3312299253978 54.25690612215549, 167.8610430362262 107.85101794302464, 170.23295100592077 134.7780068013817 M169.83430892694741 -0.0737873213365674 C170.83243085460737 34.288263915479185, 169.80549226718023 69.54998384583742, 170.06584057677537 134.19048152398318 M168.43209584616125 133.69859004952013 C105.16832912061363 134.08976350659503, 44.763042848557234 133.0756774389185, -1.2416274342685938 135.40212042070925 M170.31111297477037 133.73440514039248 C103.55449340678751 134.72724854731933, 37.25365863647312 134.22545721912758, -0.8834675503894687 134.13787514995784 M-0.6351187024265528 132.18511516787112 C2.9095886768959462 102.2491611128673, 0.9181958856247365 71.9514612235129, -0.12168721295893192 -1.963456740602851 M-0.6374093247577548 133.61448461841792 C0.21013150712475182 80.56868823580444, -1.4582121858932078 26.486464355327186, 0.05857888329774141 -0.33872433472424746" stroke="#000000" stroke-width="1" fill="none"></path></g><g transform="translate(73 66) rotate(0 18 13)"><text x="18" y="18" font-family="Virgil, Segoe UI Emoji" font-size="20px" fill="#000000" text-anchor="middle" style="white-space: pre;" direction="ltr">API</text></g><g transform="translate(307 65) rotate(0 65 13)"><text x="65" y="18" font-family="Virgil, Segoe UI Emoji" font-size="20px" fill="#000000" text-anchor="middle" style="white-space: pre;" direction="ltr">Http Request</text></g><g transform="translate(815 11) rotate(0 85 67)"><path d="M-0.6672990117222071 0.8094051573425531 C56.219447980634875 -2.7078729198314253, 115.14527845382692 -0.3037480042316021, 171.81288357637823 1.7031153533607721 M-0.5321353627368808 -0.706094671972096 C43.294476896524436 -0.30035846652463083, 85.67260759603234 -0.7561741095967591, 170.6149255381897 -0.9293460445478559 M171.92477866075933 -1.0092664863914251 C172.45309550965206 34.901090753264725, 171.95080985033886 67.06695069372654, 168.06373467110097 132.53630871511996 M170.3059224234894 -0.8186957435682416 C170.88334719197826 28.378513215482236, 170.90115977184848 56.06807275284082, 169.02815288770944 133.96804262232035 M169.20115770958364 133.0837993118912 C127.52440986130387 132.22647052342072, 87.73330311104655 133.7248604231514, -0.3834981117397547 134.162648210302 M169.62179106939584 133.47671080660075 C126.17738978005946 134.12687894785776, 80.75673593487589 134.83404433811083, 0.5972001301124692 133.44748065900058 M-1.9407619629055262 135.47928858734667 C-0.7098101858235896 104.22715472634881, -0.5713144425489008 70.21404407396912, -0.09430549480021 -0.2205395009368658 M0.10593078006058931 133.38468430470675 C-0.9381390825845302 104.45270328335464, -0.05190494814887647 76.79767977390438, -0.11540221702307463 -0.5804179208353162" stroke="#000000" stroke-width="1" fill="none"></path></g><g transform="translate(856 59) rotate(0 43 13)"><text x="43" y="18" font-family="Virgil, Segoe UI Emoji" font-size="20px" fill="#000000" text-anchor="middle" style="white-space: pre;" direction="ltr">Filestore</text></g><g><g transform="translate(186 81) rotate(0 45.63922496442683 1.087010540347535)"><path d="M1.177617036178708 0.7519533824175595 C16.527082291121285 0.7892747155080237, 75.80365306821962 0.537256029372414, 90.9417226780206 0.6953907322138548 M0.3367272508330643 0.1011249628476798 C15.624140475808332 0.2749077440115312, 74.7244520600823 2.1353922330153483, 89.9630816203542 2.072896117847413" stroke="#000000" stroke-width="1" fill="none"></path></g><g transform="translate(186 81) rotate(0 45.63922496442683 1.087010540347535)"><path d="M62.867363802763784 11.790842594019928 C66.84380471899122 11.286728718360104, 74.29536351642774 9.0488519955494, 89.2538727463223 3.8513377239368856 M61.16624425784793 11.04928996078656 C68.93647800016603 8.211509850295808, 75.96763334061833 6.803721688458332, 90.5413980695419 1.9862148571200668" stroke="#000000" stroke-width="1" fill="none"></path></g><g transform="translate(186 81) rotate(0 45.63922496442683 1.087010540347535)"><path d="M63.19075485378518 -8.727817708591424 C67.1819215628467 -5.04819868611118, 74.56759128913782 -3.105516100873733, 89.2538727463223 3.8513377239368856 M61.489635308869325 -9.469370341824792 C69.15437521338573 -7.016643509714601, 76.10218026913158 -3.135985461874472, 90.5413980695419 1.9862148571200668" stroke="#000000" stroke-width="1" fill="none"></path></g></g><g transform="translate(554 10) rotate(0 85 67)"><path d="M-0.9688496273010969 0.6596405487507582 C41.8424663702026 0.597041800338775, 79.24829721450806 -2.7368414255790414, 170.70402369089425 -0.07241684384644032 M-0.19013425800949335 0.029231623746454716 C53.1552207171917 0.6605525591410696, 108.64037576410921 0.7554817476309835, 170.7362116565928 -0.32712460961192846 M168.30601296015084 1.5515994410961866 C170.25429898424073 30.090516213141385, 167.3290240756981 63.8761962145567, 171.9139162618667 132.6518765669316 M169.32808887865394 0.17826150450855494 C170.4876685901545 44.50836553126574, 170.47329960903153 90.01948552634568, 169.65415307786316 133.62322153244168 M168.11128822155297 135.99374258331954 C109.99616705160588 134.80618644906207, 51.92734295502305 133.08340628100558, 1.5099954325705767 134.98952561430633 M170.86447665002197 133.152373210527 C107.3843558114022 133.49582069320604, 43.64529236871749 132.86524596018717, 0.8181338896974921 134.14098958764225 M-0.22508194856345654 133.06926089338958 C1.0213350877352059 97.06893313396722, 1.7125572189874947 62.760070752352476, -1.59971877746284 -0.02510690875351429 M-0.44464892242103815 134.35186581406742 C0.2331293079443275 93.37584174908697, -0.808695956747979 52.79695914071053, -0.7536879489198327 0.7290176907554269" stroke="#000000" stroke-width="1" fill="none"></path></g><g transform="translate(611.5 64) rotate(0 27.5 13)"><text x="27.5" y="18" font-family="Virgil, Segoe UI Emoji" font-size="20px" fill="#000000" text-anchor="middle" style="white-space: pre;" direction="ltr">JSON</text></g><g><g transform="translate(469 73) rotate(0 36.06412998904477 0.4287011786829851)"><path d="M-0.01506414525210853 0.03864453546702862 C12.118852022166054 0.505961977566282, 61.530123955880605 1.6134743125488362, 73.61037152893842 1.844073386117816 M-1.482111550848931 -0.98667102875188 C10.476589315651607 -0.7671441813496251, 60.83232016376531 0.11662511485939223, 72.98277111800388 0.1646371650509536" stroke="#000000" stroke-width="1" fill="none"></path></g><g transform="translate(469 73) rotate(0 36.06412998904477 0.4287011786829851)"><path d="M44.736255370478716 11.10621755684215 C56.55490774655992 5.558594441772399, 66.24874095475622 4.632720596294328, 72.9975159082748 -0.08959166714921596 M45.084798266578105 9.620355170429232 C52.753380840972255 6.596584372373501, 61.70586786323444 3.7152870999308583, 73.51361202059314 0.38584605129435656" stroke="#000000" stroke-width="1" fill="none"></path></g><g transform="translate(469 73) rotate(0 36.06412998904477 0.4287011786829851)"><path d="M44.980539652444676 -9.41353701224137 C56.54535199681756 -7.425525488590443, 66.149474356771 -0.8157340292319502, 72.9975159082748 -0.08959166714921596 M45.329082548544065 -10.899399398654289 C52.76825871618015 -7.6423024953196785, 61.64599424901938 -4.244512942003247, 73.51361202059314 0.38584605129435656" stroke="#000000" stroke-width="1" fill="none"></path></g></g><g><g transform="translate(731.5 70.50000000000006) rotate(0 36.898084679739554 0.7630953925382471)"><path d="M-0.3484243165701627 0.40981484167277804 C11.467859557146827 0.8486830345044531, 59.56568620887896 1.8389887960006792, 71.9722223866731 1.9468270968645809 M1.6695141878910364 -0.420636311788112 C13.753825806497286 -0.2444945695189139, 62.10655259958779 -0.1494652978765469, 74.14459367604927 0.32133657393977044" stroke="#000000" stroke-width="1" fill="none"></path></g><g transform="translate(731.5 70.50000000000006) rotate(0 36.898084679739554 0.7630953925382471)"><path d="M46.45759605763111 8.362441323978134 C58.459759342356186 8.176134062038543, 68.02780631088655 3.8050955553027315, 75.83955918947235 2.001635019686073 M46.64120890812579 9.538347552811034 C56.51480915211387 5.815526534882801, 68.00654057738525 3.2457903920526023, 74.48256676314399 0.6202237233705818" stroke="#000000" stroke-width="1" fill="none"></path></g><g transform="translate(731.5 70.50000000000006) rotate(0 36.898084679739554 0.7630953925382471)"><path d="M46.825126742531964 -12.15547581157673 C58.56676150675608 -4.350233841016187, 67.99163937339371 -0.728655976687655, 75.83955918947235 2.001635019686073 M47.00873959302665 -10.97956958274383 C56.55255063915112 -6.820455648228013, 67.90303497565544 -1.5048745045771366, 74.48256676314399 0.6202237233705818" stroke="#000000" stroke-width="1" fill="none"></path></g></g></svg>