<?xml version="1.0" encoding="UTF-8" standalone="no"?>
<!DOCTYPE svg PUBLIC "-//W3C//DTD SVG 1.1//EN" "http://www.w3.org/Graphics/SVG/1.1/DTD/svg11.dtd">
<svg version="1.1" xmlns="http://www.w3.org/2000/svg" xmlns:xlink="http://www.w3.org/1999/xlink" preserveAspectRatio="xMidYMid meet" viewBox="0 0 640 640" width="1280" height="1280"><defs><path d="M433.23 276.06C433.23 319.83 397.37 355.38 353.19 355.38C309.02 355.38 273.15 319.83 273.15 276.06C273.15 232.28 309.02 196.74 353.19 196.74C397.37 196.74 433.23 232.28 433.23 276.06Z" id="i2JRaUPiZu"></path><linearGradient id="gradientiqVBkLcMp" gradientUnits="userSpaceOnUse" x1="376.27" y1="289.76" x2="353.19" y2="355.38"><stop style="stop-color: #f4680b;stop-opacity: 1" offset="0%"></stop><stop style="stop-color: #010000;stop-opacity: 1" offset="100%"></stop></linearGradient><path d="M390.85 369.03L461.7 478.28L320 478.28L178.3 478.28L249.14 369.03L320 259.79L390.85 369.03Z" id="buALIXTe8"></path><path d="M354.61 310.63L389.23 361.46L320 361.46L250.77 361.46L285.38 310.63L320 259.79L354.61 310.63Z" id="cHA0RAQ9"></path></defs><g><g><g><use xlink:href="#i2JRaUPiZu" opacity="1" fill="url(#gradientiqVBkLcMp)"></use><g><use xlink:href="#i2JRaUPiZu" opacity="1" fill-opacity="0" stroke="#fc7100" stroke-width="1" stroke-opacity="1"></use></g></g><g><use xlink:href="#buALIXTe8" opacity="1" fill="#3a5c85" fill-opacity="1"></use></g><g><use xlink:href="#cHA0RAQ9" opacity="1" fill="#dff3f5" fill-opacity="1"></use></g></g></g></svg>